<svg xmlns="http://www.w3.org/2000/svg" viewBox="0 0 24 24" role="img" aria-label="Apple">
  <path fill="#F4F7FB" d="M17.05 12.54c-.03-3.02 2.47-4.49 2.58-4.56-1.42-2.07-3.62-2.35-4.4-2.37-1.85-.2-3.65 1.11-4.59 1.11-.96 0-2.4-1.09-3.97-1.06-2.02.03-3.91 1.2-4.95 3.01-2.13 3.69-.54 9.11 1.5 12.09 1.02 1.46 2.2 3.09 3.77 3.03 1.53-.06 2.1-.97 3.95-.97 1.83 0 2.37.97 3.97.93 1.65-.03 2.69-1.46 3.67-2.93 1.18-1.68 1.65-3.34 1.67-3.42-.04-.01-3.17-1.21-3.2-4.86ZM14.02 3.65c.82-1.03 1.38-2.43 1.23-3.85-1.19.05-2.68.83-3.54 1.84-.76.89-1.44 2.35-1.27 3.71 1.34.1 2.74-.68 3.58-1.7Z"/>
</svg>
